{"glyphs":{"0":{"ha":783,"x_min":0,"x_max":0,"o":"m 489 418 b 510 494 503 440 506 468 b 489 588 514 528 510 564 b 336 603 456 633 383 633 b 261 472 290 569 261 524 b 357 358 265 418 304 368 b 489 418 408 346 464 372 z m 344 513 b 408 528 360 529 388 529 b 451 497 425 524 446 517 b 400 438 467 472 431 438 b 350 457 379 438 360 444 b 344 513 336 474 332 497 z m 218 25 b 393 4 274 0 336 -8 b 633 186 497 21 578 97 b 735 478 686 275 713 379 b 743 679 751 544 764 617 b 425 865 708 811 558 883 b 139 706 315 853 211 790 b 28 396 72 619 33 511 b 75 156 19 313 33 228 b 218 25 106 101 156 54 z m 222 114 b 83 347 138 160 89 253 b 154 617 75 440 108 533 b 332 776 194 688 254 751 b 428 794 363 788 397 790 b 578 788 481 799 531 801 b 688 694 628 772 675 743 b 679 557 704 650 692 603 b 526 210 638 438 586 321 b 222 114 469 104 325 60 z "},"1":{"ha":583,"x_min":0,"x_max":0,"o":"m 138 215 b 169 35 114 153 107 68 b 243 14 190 21 218 17 b 379 6 288 6 335 -1 b 490 68 419 14 467 35 b 507 153 504 93 507 125 b 554 753 526 351 540 550 b 550 831 557 778 557 806 b 483 875 540 854 515 875 b 282 868 417 872 349 872 b 232 861 264 868 247 868 b 208 831 221 854 215 840 b 47 553 156 740 100 644 b 15 478 33 529 19 506 b 50 407 13 449 22 421 b 124 390 72 397 103 397 b 169 307 160 375 174 338 b 138 215 167 274 153 243 z m 204 176 b 240 354 215 236 228 296 b 240 428 243 381 247 404 b 176 468 228 453 204 471 b 121 513 147 460 121 488 b 144 589 117 540 131 565 b 247 764 176 644 211 704 b 326 808 261 792 294 806 b 425 799 361 813 393 806 b 467 785 439 794 456 792 b 488 704 490 764 490 732 b 432 146 469 519 449 331 b 379 89 428 118 407 96 b 292 79 351 79 322 79 b 211 108 264 79 228 86 b 204 176 197 129 201 153 z "},"2":{"ha":729,"x_min":0,"x_max":0,"o":"m 614 36 b 631 226 643 92 651 161 b 603 265 628 242 619 257 b 507 296 571 281 513 265 b 683 547 582 372 654 451 b 594 814 710 642 686 753 b 481 860 563 835 519 854 b 71 742 331 893 150 857 b 22 499 22 669 22 582 b 29 464 22 488 22 475 b 204 454 65 419 153 481 b 274 478 228 439 261 457 b 286 550 283 501 281 526 b 339 599 290 574 310 599 b 389 539 369 599 386 565 b 276 393 389 481 335 429 b 118 278 222 357 156 326 b 71 42 65 208 68 124 b 169 -4 74 7 129 -4 b 542 -7 294 -4 417 -7 b 586 0 558 -7 571 -7 b 614 36 600 7 606 19 z m 600 660 b 565 510 592 608 586 557 b 422 326 533 439 476 385 b 393 254 404 301 382 278 b 544 161 411 199 519 214 b 517 89 558 138 542 107 b 428 65 489 75 458 68 b 222 65 358 60 290 60 b 183 75 208 68 196 68 b 136 154 150 89 132 124 b 183 242 140 186 160 217 b 339 360 228 285 286 324 b 461 504 389 403 438 447 b 417 669 483 560 468 629 b 238 642 363 707 268 699 b 190 542 219 608 225 563 b 101 563 160 529 121 539 b 92 647 83 588 83 618 b 268 797 110 718 183 776 b 519 776 350 818 440 808 b 594 718 553 763 582 746 b 600 660 603 699 600 681 z "},"3":{"ha":764,"x_min":0,"x_max":0,"o":"m 593 53 b 665 189 635 88 651 140 b 693 472 697 282 728 382 b 690 597 679 514 651 569 b 690 764 742 635 732 715 b 517 847 644 808 579 829 b 361 871 465 861 413 878 b 174 778 289 864 226 822 b 111 688 146 753 118 722 b 157 597 101 653 118 607 b 271 632 194 583 236 611 b 385 639 306 656 357 669 b 371 600 399 628 385 607 b 319 590 354 593 336 597 b 261 528 289 583 264 560 b 306 456 257 500 278 469 b 364 354 343 438 368 393 b 278 272 357 313 319 279 b 160 282 236 265 199 279 b 56 244 122 289 74 279 b 18 92 35 196 25 143 b 25 57 18 81 18 67 b 60 39 32 46 46 43 b 424 1 178 8 303 -6 b 593 53 486 8 549 15 z m 419 421 b 322 518 413 465 364 493 b 426 574 357 532 396 546 b 454 674 454 597 472 639 b 340 729 440 711 385 729 b 174 667 278 729 219 704 b 361 808 188 746 275 801 b 611 746 447 815 535 785 b 651 708 628 739 644 725 b 593 621 665 674 628 642 b 531 535 558 600 517 569 b 563 500 538 521 549 511 b 628 324 617 456 658 382 b 590 279 617 306 604 292 b 500 129 556 233 542 171 b 201 74 431 57 306 57 b 104 113 164 81 129 88 b 122 196 81 140 88 185 b 167 192 136 199 153 196 b 403 331 268 175 357 247 b 419 421 417 358 426 389 z "},"4":{"ha":907,"x_min":0,"x_max":0,"o":"m 514 476 b 526 547 522 499 529 524 b 482 594 522 572 506 592 b 424 572 457 599 440 585 b 336 506 397 547 367 525 b 299 464 324 490 310 482 b 307 413 293 447 293 426 b 351 400 315 404 333 400 b 419 396 376 400 397 396 b 465 400 436 396 450 396 b 514 476 496 413 508 447 z m 471 490 l 467 490 b 414 461 461 468 433 454 b 471 511 414 489 440 515 b 471 490 471 506 471 499 z m 669 461 b 725 808 690 578 711 692 b 715 863 728 828 728 853 b 674 869 700 869 686 869 b 508 849 618 863 565 856 b 379 792 461 842 403 832 b 136 478 307 681 228 576 b 33 261 78 421 8 344 b 53 222 35 249 43 232 b 160 214 81 197 126 204 b 263 244 194 228 225 244 b 407 75 342 243 383 150 b 553 6 424 15 496 -15 b 653 144 608 24 649 81 b 735 218 653 181 699 208 b 851 261 776 232 821 235 b 886 421 893 300 889 365 b 872 454 886 433 882 447 b 842 461 865 461 851 461 b 669 461 783 461 728 461 z m 660 300 b 596 192 618 279 608 232 b 500 115 582 150 543 103 b 482 176 478 126 475 157 b 496 243 485 197 500 222 b 428 318 492 275 457 300 b 346 349 399 332 372 344 b 225 332 303 356 267 339 b 117 363 186 326 139 328 b 268 525 183 404 235 461 b 415 722 303 603 351 675 b 653 785 482 775 571 801 b 664 753 664 781 664 763 b 608 494 649 667 632 582 b 622 400 600 461 592 421 b 657 390 629 392 643 390 b 799 390 700 383 747 383 b 821 332 825 396 838 353 b 742 307 804 310 772 307 b 660 300 715 307 683 310 z "},"5":{"ha":743,"x_min":0,"x_max":0,"o":"m 349 503 b 328 353 386 463 365 390 b 242 311 307 325 272 304 b 163 390 204 318 183 356 b 74 444 139 421 108 456 b 19 325 29 435 19 374 b 118 56 26 226 61 131 b 169 7 132 35 150 18 b 232 -3 190 -3 211 -3 b 557 131 351 -7 468 44 b 718 476 646 219 704 343 b 707 596 725 517 725 558 b 618 661 690 633 656 664 b 590 732 590 657 585 701 b 608 822 601 760 618 794 b 543 860 597 846 571 856 b 256 846 447 869 351 867 b 188 811 232 842 204 832 b 167 750 174 794 169 771 b 146 640 160 713 153 678 b 146 565 139 617 136 589 b 246 524 163 528 208 521 b 349 503 279 528 321 531 z m 365 797 b 519 790 417 797 468 794 b 567 774 536 790 557 790 b 482 743 546 746 513 743 b 386 732 447 743 417 746 b 354 647 358 719 338 675 b 450 631 372 617 417 624 b 639 589 515 640 585 626 b 667 561 649 582 663 572 b 674 524 674 551 674 538 b 571 222 669 414 642 299 b 468 147 539 192 506 168 b 188 110 379 96 276 65 b 81 264 132 138 92 199 b 94 376 71 301 74 346 b 276 247 125 299 197 243 b 447 383 351 247 424 304 b 450 483 457 414 461 451 b 393 561 440 514 417 540 b 249 654 349 603 300 633 b 246 771 208 668 211 739 b 365 797 276 801 324 801 z "},"6":{"ha":775,"x_min":0,"x_max":0,"o":"m 414 419 b 304 403 376 431 335 424 b 236 317 274 382 250 351 b 233 253 229 297 226 272 b 283 215 239 232 260 215 b 328 201 301 218 315 208 b 451 218 367 183 417 190 b 489 328 482 246 496 286 b 414 419 486 368 454 406 z m 431 290 b 417 265 428 279 424 272 b 346 293 393 246 346 263 b 417 324 346 324 393 344 b 431 290 428 314 431 300 z m 475 621 b 582 779 510 676 547 728 b 606 836 594 799 606 817 b 557 871 601 857 582 878 b 42 321 304 775 106 564 b 110 40 14 221 21 99 b 250 3 150 13 199 3 b 674 201 414 -4 582 75 b 725 481 732 283 760 389 b 475 621 688 574 578 642 z m 233 94 b 182 101 215 94 199 94 b 138 153 157 113 147 132 b 189 499 93 265 124 396 b 458 758 257 601 356 679 b 493 758 468 765 486 768 b 407 653 461 721 435 686 b 376 597 393 635 383 618 b 400 546 372 581 379 557 b 475 557 424 536 451 550 b 671 461 554 576 639 529 b 632 249 697 393 676 310 b 472 132 594 197 538 157 b 233 94 397 101 315 99 z "},"7":{"ha":818,"x_min":0,"x_max":0,"o":"m 246 464 b 294 454 263 468 288 471 b 72 165 228 381 142 239 b 31 107 54 149 38 131 b 82 17 24 68 47 33 b 186 -1 114 -1 151 -1 b 301 17 225 -1 267 3 b 419 131 350 40 388 86 b 693 492 513 253 603 374 b 794 665 735 547 776 600 b 739 846 808 732 794 811 b 600 874 697 874 649 874 b 263 864 489 871 374 867 b 179 846 235 864 204 860 b 107 732 138 825 124 776 b 79 656 93 683 93 704 b 65 586 72 631 65 610 b 246 464 65 503 165 454 z m 350 572 b 211 558 304 558 260 554 b 169 568 197 558 183 561 b 158 610 158 579 151 596 b 200 760 193 679 138 707 b 288 783 225 781 256 783 b 554 808 378 794 464 801 b 658 804 589 811 624 815 b 735 739 693 794 725 774 b 690 596 753 686 718 638 b 422 239 600 475 513 357 b 190 135 371 165 276 124 b 179 138 186 138 183 138 b 193 186 163 149 176 176 b 419 475 269 249 360 394 b 436 561 436 499 457 538 b 350 572 419 586 381 579 z "},"8":{"ha":956,"x_min":0,"x_max":0,"o":"m 525 751 b 408 663 478 756 433 710 b 401 629 406 651 401 642 b 436 572 401 604 419 583 b 501 553 456 560 481 560 b 614 638 553 539 607 583 b 525 751 621 694 578 751 z m 553 642 l 557 638 b 515 622 553 622 528 608 b 519 665 501 632 501 658 b 553 642 532 676 557 658 z m 429 210 b 586 265 485 175 560 203 b 528 436 614 326 586 410 b 460 424 506 446 481 439 b 413 361 440 410 426 385 b 388 258 394 331 379 297 b 429 210 390 236 408 221 z m 535 272 l 532 275 b 469 275 515 258 485 258 b 515 319 478 299 494 319 b 535 272 535 319 553 286 z m 635 850 b 365 817 542 868 447 864 b 242 565 282 768 224 665 b 142 432 250 504 185 471 b 29 175 72 371 49 268 b 124 31 15 114 69 56 b 365 -6 199 -3 282 -6 b 758 90 501 -6 646 8 b 864 478 871 172 936 351 b 864 663 835 532 868 601 b 783 800 857 721 824 768 b 635 850 738 831 686 843 z m 382 489 b 322 546 375 515 343 525 b 319 672 293 576 300 635 b 625 775 379 778 515 800 b 765 703 676 767 731 749 b 763 550 796 658 803 583 b 704 504 744 532 718 525 b 724 453 690 485 700 446 b 838 326 783 471 842 394 b 740 156 831 258 786 203 b 669 131 719 139 690 117 b 593 124 646 146 618 135 b 221 117 474 74 340 69 b 165 149 199 124 181 135 b 135 229 144 172 138 203 b 286 426 135 322 199 413 b 347 436 307 431 326 426 b 382 489 368 443 383 467 z "},"9":{"ha":807,"x_min":0,"x_max":0,"o":"m 582 569 b 461 667 592 622 525 667 b 311 575 396 663 340 622 b 315 479 286 544 282 500 b 360 465 329 472 346 468 b 532 510 422 461 488 479 b 582 569 557 528 575 544 z m 525 575 b 396 531 492 549 443 531 b 443 586 399 556 415 575 b 525 575 469 593 501 589 z m 333 790 b 128 563 239 732 157 656 b 246 317 101 472 143 361 b 246 251 274 307 264 271 b 69 89 201 189 139 133 b 21 47 51 79 32 64 b 43 -1 14 29 18 6 b 63 -1 49 -1 56 -1 b 385 124 183 1 294 57 b 771 631 575 254 708 435 b 771 772 785 676 796 728 b 564 867 740 835 650 871 b 333 790 478 864 403 832 z m 333 383 b 204 563 235 396 183 486 b 374 743 225 638 297 696 b 564 808 429 776 494 808 b 715 714 638 810 713 769 b 706 656 719 693 713 674 b 235 144 626 449 461 265 b 343 289 271 193 308 240 b 367 340 353 303 364 321 b 333 383 367 358 353 379 z "},"B":{"ha":724,"x_min":0,"x_max":0,"o":"m 393 744 b 351 678 365 735 351 706 b 368 639 351 653 354 639 b 457 699 403 639 457 657 b 393 744 457 735 421 744 z m 454 374 b 375 315 389 374 375 346 b 400 247 375 288 375 247 b 501 325 440 247 501 281 b 454 374 501 353 475 371 z m 461 318 b 433 301 457 308 443 301 b 417 308 429 301 421 304 b 443 329 417 322 433 329 b 464 318 450 329 461 325 z m 696 357 b 574 554 696 483 574 517 b 632 685 574 593 632 622 b 344 872 632 851 457 872 b 133 826 276 872 140 861 b 38 385 82 685 38 533 b 89 79 38 281 89 175 b 86 43 89 69 86 53 b 150 1 86 15 122 1 b 696 357 426 1 672 114 z m 601 346 b 246 107 539 203 393 107 b 129 244 140 107 129 168 b 246 807 143 476 94 807 b 319 793 269 807 294 793 b 407 831 344 793 365 831 b 594 706 468 831 594 793 b 475 533 594 622 475 593 b 622 425 475 465 608 533 b 601 346 622 397 615 371 z "},"C":{"ha":757,"x_min":0,"x_max":0,"o":"m 715 690 b 697 786 732 722 722 764 b 611 836 674 815 644 826 b 283 840 504 871 390 878 b 51 592 179 800 86 708 b 33 451 40 544 38 497 b 44 261 31 388 31 324 b 269 19 75 144 163 47 b 656 131 404 -18 542 47 b 683 165 667 142 681 151 b 674 218 688 183 681 200 b 583 424 644 285 614 356 b 535 431 563 444 535 431 l 532 435 b 460 408 507 422 483 415 b 404 411 443 404 422 401 b 372 458 383 418 368 438 b 436 497 379 486 411 493 b 504 493 457 497 479 497 b 528 486 511 493 521 490 b 640 544 579 479 640 544 b 715 690 640 544 690 639 z m 619 611 b 597 578 611 599 604 589 b 535 571 579 563 556 565 b 390 544 486 578 436 578 b 351 408 347 517 324 451 b 497 381 379 356 450 356 b 576 356 525 394 556 381 b 619 268 597 331 607 299 b 626 232 626 254 631 242 b 604 207 624 221 611 214 b 296 117 518 135 404 99 b 183 169 256 124 214 138 b 107 404 122 225 114 317 b 140 660 100 490 96 589 b 249 746 169 701 207 725 b 626 774 365 808 507 836 b 663 725 644 764 663 746 b 653 690 663 711 660 701 b 619 611 644 663 631 635 z "},"D":{"ha":707,"x_min":0,"x_max":0,"o":"m 357 590 b 304 569 336 590 315 588 b 297 538 297 558 297 547 b 297 401 293 490 293 444 b 315 353 300 385 304 363 b 372 353 333 338 354 344 b 436 381 393 360 418 367 b 457 513 471 410 478 469 b 357 590 439 558 397 583 z m 386 417 b 347 419 375 410 357 410 b 343 438 347 426 343 433 b 340 501 336 458 336 481 b 347 526 340 513 340 524 b 361 531 350 531 357 531 b 411 483 386 531 407 513 b 386 417 418 458 407 431 z m 521 765 b 69 804 397 886 208 893 b 58 779 63 797 63 786 b 49 686 56 747 51 715 b 38 551 44 640 38 594 b 51 344 38 483 44 413 b 88 50 63 249 74 150 b 126 11 88 29 108 18 b 347 39 201 -7 276 11 b 610 264 454 78 553 153 b 521 765 689 424 646 647 z m 600 394 b 521 246 592 335 560 285 b 389 157 482 210 436 185 b 194 128 329 125 254 93 b 122 246 154 150 133 200 b 119 394 115 296 115 344 b 138 704 126 499 133 601 b 165 772 140 729 144 761 b 482 736 265 829 393 814 b 600 394 571 661 621 524 z "},"E":{"ha":646,"x_min":0,"x_max":0,"o":"m 543 867 b 451 881 515 883 483 881 b 210 863 371 874 290 867 b 104 835 175 860 136 856 b 42 603 44 786 38 688 b 51 263 44 490 49 375 b 115 38 51 182 58 88 b 279 3 160 -4 224 -4 b 389 10 318 3 353 7 b 536 69 442 14 501 21 b 568 189 561 101 568 147 b 456 269 568 217 536 269 b 435 294 442 269 431 283 b 465 301 444 297 456 297 l 469 301 b 554 350 469 301 557 308 b 494 474 550 403 532 456 b 403 483 465 488 431 481 b 568 513 438 536 515 483 b 613 656 606 536 613 600 b 543 867 613 736 606 831 z m 515 603 b 472 554 511 579 494 554 b 392 564 444 550 417 579 b 375 547 385 561 378 554 b 375 438 353 515 357 469 b 463 403 396 407 431 393 b 479 371 476 407 486 382 b 442 354 472 357 456 354 b 399 357 428 357 413 361 b 389 249 364 347 361 281 b 494 207 413 217 456 214 b 486 143 508 189 501 157 b 431 111 469 126 449 118 b 329 81 396 101 364 90 b 192 76 283 67 235 56 b 100 251 136 104 115 182 b 90 631 83 378 79 504 b 164 789 97 694 115 764 b 226 803 182 800 206 803 b 392 800 283 803 336 803 b 479 768 424 796 456 793 b 511 681 497 743 504 713 b 515 603 515 656 518 631 z "},"F":{"ha":796,"x_min":0,"x_max":0,"o":"m 772 672 b 747 783 772 711 768 751 b 599 849 713 828 654 842 b 235 853 478 867 357 867 b 139 814 201 849 160 842 b 118 769 128 800 125 783 b 38 324 76 624 49 472 b 72 101 35 247 35 168 b 281 4 114 32 201 -6 b 401 119 339 11 399 57 b 443 147 401 136 425 150 b 501 136 464 147 481 140 b 613 215 550 133 594 171 b 622 310 622 247 629 278 b 578 347 619 319 606 340 b 578 347 578 347 578 347 b 554 351 571 347 564 351 b 501 361 554 351 508 361 b 481 368 494 361 485 365 b 485 392 481 375 481 382 b 594 368 506 389 568 375 b 636 368 619 361 629 368 b 747 489 692 385 726 438 b 772 672 772 549 775 610 z m 733 617 b 710 514 726 582 724 549 b 633 447 696 482 668 454 b 526 468 594 440 561 458 b 429 451 494 479 450 482 b 415 399 415 438 415 417 b 547 324 425 340 494 299 b 571 271 575 333 592 289 b 494 261 554 250 522 254 b 415 275 471 271 443 282 b 283 81 336 257 364 108 b 190 122 249 67 208 92 b 163 233 169 157 167 194 b 135 531 153 333 146 431 b 146 707 132 589 125 651 b 274 811 167 763 215 811 b 529 804 360 807 446 807 b 724 725 606 804 692 793 b 733 617 740 693 738 656 z "},"G":{"ha":818,"x_min":0,"x_max":0,"o":"m 636 863 b 169 819 478 876 321 863 b 82 778 139 813 103 799 b 47 669 54 750 50 708 b 57 189 36 508 40 346 b 89 79 61 150 68 111 b 325 3 135 13 236 3 b 613 54 426 -1 535 -1 b 697 150 647 79 671 115 b 776 508 760 258 788 385 b 767 546 776 522 774 536 b 721 571 756 560 739 564 b 388 582 613 596 496 603 b 353 568 376 578 363 575 b 335 525 342 557 339 543 b 390 332 321 454 321 364 b 321 350 369 318 335 329 b 299 417 306 367 303 396 b 346 603 292 483 289 560 b 678 647 436 669 590 578 b 732 778 718 681 728 729 b 725 824 732 792 732 810 b 636 863 707 853 668 860 z m 482 518 b 643 504 535 515 590 511 b 678 494 654 504 668 504 b 697 461 689 488 692 476 b 650 206 721 374 704 279 b 415 61 597 129 511 75 b 261 82 363 54 306 58 b 176 199 215 104 181 150 b 153 654 169 350 160 504 b 174 750 153 690 153 725 b 254 785 190 771 226 778 b 556 819 353 803 454 817 b 650 810 588 824 622 824 b 675 732 678 792 692 757 b 597 711 657 711 626 711 b 363 711 521 711 440 711 b 271 647 321 711 285 683 b 254 539 254 613 254 575 b 271 371 257 483 261 426 b 317 283 275 339 285 301 b 374 272 335 275 353 272 b 489 304 411 272 457 279 b 535 406 525 325 546 367 b 436 451 525 440 475 469 b 408 501 411 440 394 481 b 482 518 426 518 457 518 z "},"H":{"ha":867,"x_min":0,"x_max":0,"o":"m 74 618 b 39 135 63 457 49 296 b 49 51 35 107 35 75 b 185 3 74 6 132 -1 b 357 17 242 3 300 6 b 415 38 378 19 401 24 b 444 114 438 58 440 86 b 468 393 451 208 458 300 b 489 243 493 349 493 296 b 500 89 489 190 482 139 b 608 -1 514 40 560 -1 b 731 24 650 3 692 6 b 797 118 769 40 800 75 b 818 694 790 310 797 503 b 776 856 825 754 829 828 b 594 863 719 886 650 842 b 514 810 560 876 524 844 b 510 708 503 778 510 743 b 475 614 514 674 507 632 b 482 778 479 667 479 722 b 472 831 482 796 482 814 b 394 856 454 851 422 856 b 226 831 339 851 283 844 b 132 789 192 824 161 814 b 74 618 88 747 81 681 z m 140 669 b 175 757 143 701 150 736 b 244 782 192 775 219 778 b 346 800 279 789 311 796 b 429 785 374 803 408 803 b 444 688 454 761 454 719 b 438 586 438 656 422 618 b 514 575 447 554 503 544 b 553 778 542 639 556 708 b 608 814 553 803 583 814 b 696 814 636 814 668 814 b 779 785 728 814 763 810 b 783 729 786 768 786 747 b 731 183 765 547 749 365 b 699 118 728 160 724 128 b 542 181 643 86 563 118 b 546 310 528 219 539 264 b 524 432 553 351 553 401 b 419 422 496 467 429 464 b 399 247 406 363 406 303 b 318 89 388 188 367 128 b 157 96 272 54 196 51 b 125 169 140 118 132 142 b 140 669 90 335 115 503 z "},"I":{"ha":518,"x_min":0,"x_max":0,"o":"m 358 18 b 379 56 369 28 376 42 b 436 368 411 158 425 264 b 488 761 453 499 471 632 b 436 860 492 804 481 860 b 200 867 358 864 281 867 b 110 811 161 867 126 842 b 85 708 92 779 88 744 b 32 119 67 513 50 315 b 78 21 32 81 36 35 b 310 4 151 0 228 -7 b 358 18 326 4 344 7 z m 94 154 b 133 604 119 301 133 453 b 193 758 133 664 138 731 b 278 779 218 772 250 775 b 397 786 317 779 358 783 b 432 775 411 790 429 786 b 432 765 436 772 436 768 b 363 267 418 600 393 432 b 317 140 354 225 344 179 b 193 67 292 99 246 67 b 94 154 140 67 88 108 z "},"J":{"ha":683,"x_min":0,"x_max":0,"o":"m 365 10 b 576 104 447 19 532 43 b 614 250 607 149 610 199 b 647 772 624 422 638 596 b 556 857 650 817 603 850 b 408 836 506 867 458 850 b 321 758 368 822 318 799 b 325 378 325 633 325 504 b 271 243 325 328 318 267 b 186 304 260 274 222 297 b 74 297 149 311 111 304 b 17 269 50 293 26 288 b 10 236 10 260 10 246 b 94 47 10 165 36 94 b 365 10 168 -4 274 -4 z m 610 718 b 579 406 600 613 590 511 b 451 104 569 293 549 168 b 331 60 413 81 372 67 b 151 83 271 50 203 53 b 85 226 97 111 64 175 b 158 246 94 253 132 257 b 226 199 186 236 206 215 b 307 172 250 179 276 165 b 358 274 349 182 358 233 b 365 718 361 422 361 569 b 382 775 365 739 365 763 b 429 792 396 786 413 789 b 515 806 458 796 488 803 b 583 803 539 810 563 813 b 610 718 610 786 614 749 z "},"K":{"ha":747,"x_min":0,"x_max":0,"o":"m 632 69 b 622 118 632 88 628 100 b 525 300 597 183 564 244 b 536 433 501 333 513 392 b 632 543 560 478 597 508 b 711 669 667 574 697 615 b 669 810 725 721 711 789 b 611 817 653 824 632 821 b 488 789 567 814 525 810 b 399 683 450 772 413 735 b 351 697 392 660 361 669 b 340 776 344 721 347 749 b 224 861 326 835 272 854 b 63 796 165 868 97 861 b 42 663 46 758 42 711 b 39 214 42 513 39 365 b 100 15 39 139 46 43 b 151 4 118 4 135 4 b 254 1 186 1 221 1 b 331 43 282 1 319 4 b 333 90 333 60 331 74 b 361 104 338 104 354 118 b 560 4 413 36 488 -6 b 632 69 594 8 628 29 z m 217 800 b 293 763 244 796 275 789 b 303 663 310 735 306 697 b 310 560 300 629 296 590 b 375 550 324 529 361 519 b 557 751 413 642 478 718 b 642 751 583 765 615 772 b 656 656 667 735 679 681 b 450 429 588 581 518 506 b 419 385 436 417 426 403 b 429 331 413 368 415 340 b 567 125 492 282 553 217 b 550 90 569 118 553 94 b 522 74 546 76 532 74 b 347 261 443 83 368 158 b 306 268 340 282 317 286 b 296 210 296 256 293 231 b 296 146 296 190 300 165 b 214 97 286 107 249 88 b 118 107 183 104 139 81 b 76 303 88 146 74 249 b 88 635 90 413 93 525 b 107 769 88 683 83 735 b 217 800 135 807 179 803 z "},"M":{"ha":986,"x_min":0,"x_max":0,"o":"m 50 481 b 40 108 47 357 43 232 b 67 10 36 75 40 29 b 119 -1 81 -1 101 -1 b 269 6 171 3 218 3 b 386 43 311 6 357 10 b 460 274 438 101 415 210 b 611 239 490 215 563 199 b 676 194 635 261 669 225 b 686 90 682 160 676 126 b 765 29 700 57 732 32 b 868 39 800 24 835 32 b 918 71 886 46 907 54 b 924 108 924 82 924 97 b 944 515 931 246 938 381 b 897 769 949 604 951 703 b 689 763 842 835 738 831 b 608 656 663 725 646 674 b 328 867 586 793 449 867 b 126 783 256 867 178 844 b 50 481 64 703 57 586 z m 476 381 b 422 400 476 408 438 418 b 394 322 401 381 397 349 b 372 167 386 271 379 218 b 274 75 367 115 318 82 b 143 106 229 71 185 89 b 106 133 128 108 113 115 b 99 167 99 143 99 157 b 94 394 99 243 94 319 b 108 618 92 469 92 546 b 229 783 126 690 171 760 b 321 793 260 793 292 793 b 474 760 372 793 429 786 b 565 618 521 732 563 676 b 653 600 569 574 624 571 b 711 707 676 629 686 674 b 889 683 756 769 856 756 b 907 564 907 644 907 604 b 875 129 904 418 893 274 b 776 160 842 140 810 150 b 738 257 740 171 735 218 b 704 360 738 297 735 346 b 586 297 663 381 628 319 b 476 381 543 274 481 319 z "},"L":{"ha":638,"x_min":0,"x_max":0,"o":"m 314 678 b 260 856 314 746 314 828 b 161 849 229 868 194 858 b 93 825 138 838 117 831 b 38 767 65 814 35 797 b 44 174 56 569 58 372 b 72 38 44 126 42 72 b 174 4 100 11 138 4 b 494 14 279 -3 389 0 b 593 51 528 18 565 25 b 624 174 621 82 624 131 b 626 283 624 236 626 222 b 617 338 626 297 626 328 b 596 351 614 344 603 347 b 406 351 535 368 467 368 b 347 382 385 344 361 361 b 324 453 335 403 328 426 b 314 678 314 508 311 624 z m 553 236 b 542 143 558 188 558 192 b 433 63 521 100 481 58 b 263 75 375 65 317 72 b 171 103 229 75 194 79 b 131 206 143 126 138 168 b 93 576 113 328 100 450 b 100 708 89 621 86 668 b 185 800 113 753 143 790 b 274 729 225 807 274 776 b 276 328 274 617 276 443 b 286 286 276 314 279 297 b 338 276 300 274 321 276 b 478 300 382 286 429 293 b 518 300 490 304 508 307 b 553 236 542 290 549 263 z "},"N":{"ha":807,"x_min":0,"x_max":0,"o":"m 92 707 b 68 589 78 669 75 631 b 31 110 51 432 40 271 b 33 71 31 96 31 81 b 85 17 38 40 65 26 b 304 78 161 -11 247 13 b 333 96 317 86 324 96 b 361 74 343 96 354 81 b 614 10 425 -8 525 -8 b 721 103 663 17 721 43 b 751 617 721 275 725 449 b 742 819 763 686 776 765 b 583 865 704 875 638 875 b 536 851 567 865 550 861 b 493 656 483 819 486 728 b 460 656 486 640 469 646 b 436 697 446 665 442 683 b 264 838 401 778 333 835 b 92 707 192 844 119 789 z m 411 119 b 364 250 385 154 378 206 b 271 299 347 294 301 329 b 254 143 240 263 267 194 b 135 89 236 93 179 86 b 92 106 119 89 103 93 b 85 154 85 119 85 138 b 108 528 96 278 103 400 b 147 703 113 589 115 656 b 271 772 175 751 222 775 b 385 679 317 765 357 731 b 446 572 404 646 418 600 b 525 603 474 546 525 558 b 532 724 529 640 529 683 b 543 782 532 744 532 765 b 625 803 560 813 593 810 b 679 792 642 799 663 796 b 714 775 694 792 707 789 b 721 721 725 761 725 740 b 672 208 707 549 690 376 b 593 93 668 154 635 110 b 469 89 556 71 513 74 b 411 119 449 93 429 103 z "},"O":{"ha":932,"x_min":0,"x_max":0,"o":"m 560 592 b 501 649 542 615 529 639 b 393 639 467 667 426 653 b 321 599 365 629 342 618 b 311 449 288 561 301 500 b 342 383 318 425 325 401 b 440 374 369 360 406 364 b 596 486 501 390 560 432 b 603 507 600 493 603 500 b 593 538 607 519 600 531 b 560 592 583 557 569 574 z m 474 465 b 417 465 457 456 436 458 b 400 476 413 469 406 469 b 406 510 393 486 396 500 b 440 524 417 517 426 519 b 485 517 454 526 474 526 b 474 465 499 503 492 476 z m 769 733 b 699 813 743 758 713 778 b 572 874 675 857 621 869 b 358 857 501 881 426 876 b 43 383 165 794 22 588 b 454 0 63 181 250 7 b 767 139 572 0 689 51 b 849 279 804 181 831 228 b 769 733 910 432 892 622 z m 807 540 b 658 204 790 418 750 292 b 314 143 569 119 424 82 b 233 204 283 160 260 181 b 104 476 158 275 90 374 b 144 578 111 513 124 547 b 379 801 196 676 276 761 b 485 808 413 815 454 822 b 694 721 553 775 626 761 b 807 540 760 683 814 615 z "},"P":{"ha":842,"x_min":0,"x_max":0,"o":"m 526 706 b 486 713 513 713 499 713 b 375 589 424 710 368 651 b 510 503 382 526 454 478 b 561 661 568 526 586 606 b 526 706 554 678 544 696 z m 510 571 b 482 558 499 564 489 561 b 444 564 468 554 447 554 b 458 589 444 575 451 585 b 506 610 472 599 489 606 b 524 610 513 613 517 613 b 510 571 538 603 524 578 z m 814 692 b 793 754 810 713 807 738 b 689 810 772 789 731 803 b 175 868 524 854 347 872 b 78 792 133 865 96 831 b 57 668 61 754 61 710 b 36 119 50 485 43 303 b 43 57 36 99 33 75 b 150 1 61 19 110 6 b 403 106 247 -8 368 15 b 419 233 417 147 413 192 b 506 313 431 275 465 319 b 754 424 600 299 700 347 b 814 692 810 499 831 599 z m 679 440 b 461 385 617 396 538 375 b 419 382 447 385 433 389 b 392 364 410 382 403 371 b 324 236 358 331 340 282 b 247 113 306 192 285 143 b 113 108 210 82 147 75 b 89 229 85 140 85 189 b 126 710 103 392 117 551 b 138 747 131 724 131 738 b 196 775 147 765 171 772 b 658 765 347 799 506 796 b 758 717 696 758 733 744 b 779 640 772 692 779 665 b 679 440 779 564 738 489 z "},"Q":{"ha":922,"x_min":0,"x_max":0,"o":"m 439 660 b 396 653 425 660 410 660 b 322 535 356 635 331 583 b 351 403 318 489 325 440 b 461 364 376 368 421 350 b 564 524 519 382 567 451 b 439 660 560 593 501 660 z m 488 469 b 425 517 461 447 418 482 b 497 542 428 550 476 565 b 488 469 508 517 504 485 z m 840 696 b 667 846 808 774 739 825 b 439 857 592 868 515 864 b 206 801 363 850 279 839 b 44 617 133 765 67 700 b 33 422 26 554 31 485 b 121 111 44 313 58 196 b 465 21 203 1 349 -24 b 589 42 504 35 549 57 b 667 1 615 28 636 -3 b 713 35 685 6 699 21 b 844 181 757 83 801 129 b 878 257 868 199 889 229 b 840 696 824 393 896 561 z m 772 451 b 710 393 761 419 739 386 b 688 342 688 400 678 360 b 746 306 703 319 724 313 b 793 254 768 294 789 281 b 772 203 793 236 782 218 b 685 115 746 167 719 133 b 574 129 647 93 600 97 b 490 136 557 153 519 153 b 418 83 465 122 443 101 b 179 163 338 39 235 86 b 96 444 125 243 107 346 b 96 590 89 492 82 542 b 325 758 125 693 231 732 b 592 794 414 783 501 808 b 789 617 681 781 772 714 b 772 451 801 561 789 503 z "},"R":{"ha":764,"x_min":0,"x_max":0,"o":"m 438 664 b 354 618 406 685 368 657 b 350 499 340 581 343 539 b 419 425 357 460 389 429 b 496 485 450 422 485 450 b 464 629 510 536 489 588 b 438 664 457 643 447 657 z m 417 501 b 424 539 417 515 417 529 b 450 536 431 550 447 550 b 417 501 457 515 433 488 z m 706 450 b 543 818 743 594 657 757 b 178 853 433 881 303 871 b 99 818 150 846 119 839 b 61 692 71 788 64 736 b 33 78 43 488 36 281 b 43 22 33 57 33 36 b 117 1 57 -6 89 -3 b 217 11 147 4 182 8 b 599 85 343 29 475 46 b 675 125 626 92 657 101 b 682 215 696 150 703 192 b 668 332 657 246 657 294 b 706 450 678 374 696 411 z m 585 292 b 631 201 592 257 633 239 b 582 160 631 174 603 160 b 517 139 557 157 533 160 b 443 153 496 118 464 129 b 417 243 426 174 419 208 b 396 294 413 260 410 285 b 354 232 371 304 350 264 b 357 139 357 201 371 167 b 278 104 343 104 310 104 b 143 115 233 108 189 111 b 99 129 126 115 110 115 b 85 194 85 146 85 171 b 92 588 89 325 89 457 b 136 757 92 650 99 718 b 236 788 164 785 203 788 b 461 778 313 794 389 799 b 643 625 533 753 606 704 b 626 371 682 546 682 436 b 585 292 610 350 582 325 z "},"S":{"ha":722,"x_min":0,"x_max":0,"o":"m 100 349 b 54 329 81 349 64 346 b 47 292 47 319 47 306 b 40 103 43 229 43 165 b 47 65 40 89 40 76 b 83 46 54 56 71 49 b 353 3 171 19 264 -4 b 603 113 447 10 540 43 b 660 379 667 182 696 292 b 643 429 653 396 643 413 b 650 465 643 442 646 453 b 679 679 674 532 683 606 b 596 806 676 735 653 806 b 436 861 540 808 493 849 b 250 813 369 872 307 842 b 83 672 183 779 117 739 b 203 349 24 558 93 408 b 100 349 167 353 133 353 z m 110 589 b 257 751 124 665 190 718 b 410 796 303 779 357 799 b 533 758 453 792 493 775 b 603 729 557 749 579 739 b 626 713 613 725 619 718 b 636 682 633 701 633 692 b 633 572 636 646 636 608 b 600 532 629 551 619 525 b 390 582 529 556 460 572 b 331 556 367 585 333 582 b 383 515 326 532 360 518 b 533 436 440 501 493 479 b 586 272 574 392 596 329 b 364 106 567 172 460 115 b 160 143 293 99 219 110 b 104 199 138 156 114 172 b 114 272 93 222 97 253 b 176 286 131 286 154 286 b 333 282 231 286 281 282 b 397 313 360 282 390 286 b 374 356 400 329 390 349 b 324 369 360 365 343 365 b 174 432 269 375 214 396 b 110 589 131 472 104 532 z "},"T":{"ha":729,"x_min":0,"x_max":0,"o":"m 211 78 b 379 4 239 11 315 -3 b 576 153 461 11 560 56 b 564 300 583 201 565 251 b 621 415 564 349 581 408 b 694 490 657 418 685 453 b 703 613 706 533 703 575 b 688 813 699 679 692 746 b 675 864 688 829 685 854 b 632 875 661 875 646 875 b 100 864 454 871 278 868 b 54 790 72 864 61 826 b 38 658 50 750 44 704 b 38 499 31 606 19 550 b 142 422 50 446 100 404 b 228 349 179 435 221 393 b 211 213 235 304 221 257 b 211 78 201 167 193 118 z m 517 150 b 442 104 501 122 468 111 b 394 90 428 101 410 94 b 275 111 354 81 301 71 b 275 240 250 146 264 199 b 281 393 281 293 283 344 b 253 475 278 426 271 457 b 176 501 232 490 201 490 b 104 701 113 531 104 624 b 128 781 104 728 106 767 b 163 790 138 790 153 790 b 621 783 315 806 468 801 b 643 739 636 781 643 757 b 657 631 650 704 654 665 b 657 543 661 603 664 571 b 606 494 646 519 629 494 b 517 415 564 494 532 457 b 521 279 507 369 514 324 b 517 150 528 233 539 185 z "},"U":{"ha":724,"x_min":0,"x_max":0,"o":"m 333 854 b 135 875 268 861 203 868 b 53 806 100 878 69 843 b 39 675 39 765 39 721 b 32 281 35 542 35 411 b 53 117 32 224 32 165 b 256 3 90 31 176 7 b 413 3 307 0 358 0 b 536 42 454 3 501 7 b 585 124 557 61 571 93 b 694 669 653 292 690 481 b 681 782 697 710 694 747 b 588 861 663 826 625 850 b 475 857 550 868 513 864 b 419 833 454 854 433 850 b 403 775 410 819 406 796 b 382 597 396 717 389 656 b 378 738 358 635 371 689 b 333 854 385 785 371 850 z m 611 481 b 601 408 611 456 608 432 b 564 333 594 381 578 357 b 406 113 515 250 478 158 b 214 96 347 79 279 86 b 149 117 193 100 169 103 b 88 292 100 147 90 226 b 111 785 76 456 83 624 b 163 813 114 813 142 817 b 303 792 210 810 258 803 b 340 758 319 789 340 779 b 331 624 338 714 333 669 b 354 525 326 586 331 542 b 424 563 378 507 410 532 b 429 665 433 593 433 631 b 450 765 429 700 433 738 b 571 792 478 806 529 803 b 615 772 588 792 604 789 b 629 693 632 754 632 721 b 611 481 622 624 618 553 z "},"V":{"ha":792,"x_min":0,"x_max":0,"o":"m 371 833 b 256 874 347 874 299 874 b 147 874 221 874 185 874 b 51 843 113 874 76 871 b 39 715 25 810 28 758 b 136 115 72 515 103 315 b 150 72 140 99 143 85 b 228 31 167 44 201 38 b 360 11 272 24 317 18 b 496 28 407 4 458 -3 b 563 139 529 51 546 96 b 739 640 621 306 682 475 b 753 779 756 688 774 739 b 635 847 732 829 678 847 b 492 847 588 843 536 833 b 428 782 461 857 435 817 b 390 688 421 749 418 708 b 371 833 376 735 394 793 z m 449 718 b 533 786 461 756 496 779 b 642 779 569 793 604 786 b 678 756 654 775 675 769 b 671 715 682 742 678 728 b 451 200 597 542 526 372 b 421 160 444 183 435 169 b 347 153 400 146 374 160 b 211 214 299 136 242 167 b 150 372 178 258 164 319 b 86 725 126 492 103 607 b 113 810 82 758 86 806 b 157 796 131 813 143 803 b 293 739 201 772 258 779 b 326 638 313 711 317 671 b 397 576 336 603 364 565 b 435 640 421 583 431 614 b 449 718 438 664 438 694 z "},"W":{"ha":1036,"x_min":0,"x_max":0,"o":"m 483 756 b 396 832 471 806 429 822 b 131 831 308 853 218 853 b 58 788 103 826 79 815 b 75 540 19 728 46 618 b 249 97 133 393 192 246 b 369 -1 271 33 322 -7 b 479 121 415 3 463 56 b 500 171 488 140 490 160 b 531 164 510 185 526 185 b 631 8 543 90 583 29 b 772 56 678 -14 732 3 b 839 208 803 94 821 150 b 1000 706 893 372 946 536 b 933 840 1017 761 974 819 b 626 769 833 890 714 863 b 557 814 625 815 579 846 b 526 753 543 800 536 771 b 483 756 514 736 490 732 z m 549 303 b 483 336 543 339 506 351 b 422 258 461 324 443 289 b 285 199 389 203 328 154 b 244 268 267 215 258 242 b 103 636 197 389 146 514 b 103 726 94 667 88 706 b 131 739 111 736 119 736 b 396 749 222 742 308 744 b 519 650 444 753 476 624 b 560 710 536 661 547 689 b 601 701 569 726 597 726 b 664 685 608 661 644 661 b 714 769 682 711 694 749 b 761 788 729 782 744 788 b 961 736 831 800 896 782 b 782 233 899 571 843 401 b 713 111 765 189 744 133 b 604 147 674 90 635 111 b 549 303 576 189 560 246 z "},"X":{"ha":913,"x_min":0,"x_max":0,"o":"m 728 3 b 833 18 764 0 803 -4 b 868 124 864 35 889 85 b 763 347 833 199 799 272 b 742 413 750 368 742 388 b 750 492 738 440 744 467 b 817 650 768 546 789 601 b 854 746 829 681 847 711 b 824 835 861 781 851 821 b 785 843 813 843 799 843 b 640 853 738 846 689 849 b 553 821 610 853 571 853 b 504 765 539 799 524 756 b 431 860 500 811 465 846 b 321 860 394 869 356 865 b 181 839 272 853 228 846 b 88 808 150 835 115 829 b 49 711 61 786 39 750 b 118 619 57 671 93 650 b 157 383 171 560 176 465 b 43 172 132 303 88 238 b 57 63 22 142 32 89 b 150 18 83 35 118 24 b 381 49 228 -7 325 -21 b 408 75 386 58 396 68 b 435 63 417 79 431 75 b 486 24 439 35 465 28 b 728 3 569 18 649 10 z m 414 219 b 315 107 404 164 364 124 b 172 97 269 89 221 93 b 153 107 167 99 160 99 b 146 133 146 114 146 124 b 246 457 146 251 246 339 b 108 699 246 560 172 636 b 111 751 93 711 101 739 b 160 769 126 765 142 769 b 304 794 207 776 256 783 b 404 790 339 799 369 800 b 469 711 435 781 465 751 b 535 704 475 681 514 681 b 588 776 553 729 563 760 b 644 783 603 786 624 783 b 803 764 697 776 747 769 b 635 496 744 674 689 585 b 619 467 628 488 619 478 b 658 374 610 432 638 401 b 793 133 717 304 754 219 b 469 207 689 65 544 99 b 442 238 461 219 451 229 b 414 219 431 242 414 238 z "},"Y":{"ha":800,"x_min":0,"x_max":0,"o":"m 525 857 b 418 751 476 850 415 817 b 389 735 422 732 399 725 b 361 779 375 742 368 763 b 124 857 311 875 208 872 b 38 810 92 850 58 843 b 35 694 21 779 21 732 b 82 596 44 660 65 629 b 154 221 140 490 164 354 b 178 24 147 154 138 68 b 251 4 197 7 225 4 b 347 0 282 4 314 0 b 465 14 389 0 425 -3 b 551 117 504 28 539 64 b 551 304 568 174 549 238 b 674 542 558 401 619 472 b 776 789 729 606 786 694 b 763 833 776 806 772 824 b 725 853 753 847 739 850 b 525 857 660 865 592 865 z m 613 578 b 436 204 515 504 460 354 b 413 133 432 181 429 150 b 344 113 394 110 368 113 b 256 124 314 117 282 119 b 235 133 244 124 239 126 b 228 157 228 140 228 147 b 208 490 221 268 215 378 b 192 554 204 514 201 542 b 89 715 150 603 115 656 b 85 758 82 728 75 746 b 99 765 89 763 92 763 b 382 643 201 796 314 746 b 446 678 401 613 436 643 b 486 775 456 715 460 756 b 518 786 493 782 508 782 b 694 789 575 793 636 793 b 732 758 713 786 729 779 b 729 735 732 751 732 742 b 667 619 715 692 694 646 b 613 578 650 603 629 592 z "},"Z":{"ha":750,"x_min":0,"x_max":0,"o":"m 686 869 b 633 879 668 879 651 879 b 172 879 481 879 325 879 b 42 776 111 879 63 831 b 36 606 25 724 32 665 b 46 586 39 600 39 589 b 83 576 51 576 69 576 b 357 603 172 586 267 597 b 115 340 276 517 194 431 b 81 296 100 326 86 314 b 74 251 74 282 74 265 b 74 106 74 201 74 154 b 104 11 74 71 76 33 b 194 -1 129 -6 164 -6 b 568 43 319 17 443 29 b 694 164 629 51 678 106 b 689 349 710 226 699 285 b 432 343 606 365 515 361 b 643 504 492 410 564 461 b 678 551 660 510 671 531 b 724 772 706 621 719 697 b 686 869 726 807 719 851 z m 336 268 b 363 268 343 265 354 268 b 568 308 429 282 499 296 b 636 231 606 317 640 271 b 544 119 629 182 592 140 b 392 86 496 99 443 92 b 213 68 329 81 271 75 b 167 71 194 68 181 64 b 143 99 156 78 149 89 b 146 276 115 150 121 219 b 256 424 172 331 215 375 b 422 603 311 482 367 542 b 432 675 443 624 461 665 b 408 681 426 681 415 681 b 94 663 306 681 199 681 b 83 669 92 663 86 665 b 149 817 60 724 92 793 b 242 828 178 828 207 828 b 622 817 367 825 496 821 b 646 814 629 817 640 817 b 668 758 668 804 671 779 b 544 519 660 669 608 589 b 343 326 481 456 406 396 b 336 268 329 308 314 279 z "},"!":{"ha":446,"x_min":0,"x_max":0,"o":"m 51 569 b 110 357 74 497 90 429 b 125 322 113 344 117 333 b 264 296 150 276 215 282 b 329 357 293 301 318 326 b 358 447 346 385 351 417 b 424 789 381 561 401 678 b 421 851 426 811 429 832 b 351 879 407 876 376 879 b 88 842 261 876 172 865 b 47 822 74 838 57 832 b 19 729 22 804 17 764 b 51 569 22 675 36 621 z m 304 467 b 253 382 293 432 278 401 b 163 379 225 361 188 357 b 131 442 144 396 139 419 b 63 675 110 518 85 596 b 74 786 54 711 44 761 b 100 797 82 792 90 794 b 381 829 190 832 286 842 b 304 467 358 708 349 581 z m 218 258 b 172 251 203 254 188 251 b 142 214 156 249 144 231 b 125 69 125 168 125 119 b 150 0 125 43 128 13 b 182 -3 160 -3 168 -3 b 318 47 231 0 278 19 b 329 88 326 57 329 72 b 333 143 329 106 329 125 b 307 239 333 178 333 217 b 218 258 286 265 250 261 z m 185 140 b 193 190 178 160 182 178 b 239 208 207 206 221 206 b 274 203 253 208 264 211 b 293 174 283 196 286 188 b 299 138 296 163 299 149 b 239 88 296 108 268 85 b 185 140 213 88 190 113 z "},".":{"ha":200,"x_min":0,"x_max":0,"o":"m 28 96 b 29 38 25 75 24 56 b 74 0 38 18 56 1 b 97 4 82 0 92 1 b 163 38 122 8 153 15 b 171 68 167 46 167 56 b 172 143 172 92 176 119 b 158 171 171 154 165 163 b 136 175 153 175 143 175 b 47 147 104 175 69 172 b 28 96 35 135 29 114 z m 136 128 b 140 117 139 125 140 121 b 125 72 144 101 139 79 b 75 74 108 63 89 63 b 65 110 64 83 60 97 b 96 106 74 121 96 119 b 97 117 99 106 99 111 b 92 125 93 119 92 124 b 93 133 92 128 93 129 b 136 128 107 143 126 142 z "},"/":{"ha":653,"x_min":0,"x_max":0,"o":"m 11 53 b 115 1 21 8 75 -1 b 267 53 169 6 225 11 b 307 115 282 71 294 93 b 600 685 408 304 506 493 b 610 836 622 732 644 796 b 557 865 597 851 578 858 b 326 774 475 881 383 846 b 260 654 299 739 279 694 b 24 108 182 471 103 292 b 11 53 18 93 8 71 z m 140 113 b 115 106 131 108 125 106 b 93 147 100 108 90 128 b 113 194 93 163 103 178 b 267 550 175 304 219 426 b 351 707 289 607 314 663 b 496 783 386 751 440 786 b 518 774 503 783 513 779 b 515 729 528 761 522 742 b 364 404 465 622 414 515 b 140 113 311 292 247 165 z "},",":{"ha":211,"x_min":0,"x_max":0,"o":"m 99 15 b 114 25 106 18 108 21 b 126 42 121 29 122 35 b 193 151 144 81 168 115 b 200 171 200 156 203 165 b 188 176 194 174 193 176 b 89 161 154 179 114 185 b 63 121 76 151 69 136 b 21 33 47 90 32 63 b 15 14 19 26 14 21 b 32 -1 19 6 24 1 b 56 4 42 -1 47 1 b 99 15 69 7 85 13 z m 56 58 b 78 90 68 67 74 81 b 93 131 82 106 85 121 b 129 144 101 143 115 151 b 144 144 132 143 139 144 b 156 136 149 144 156 143 b 154 132 154 136 154 132 b 85 49 138 99 114 72 b 63 39 78 43 71 38 b 56 58 54 42 50 53 z "},":":{"ha":324,"x_min":0,"x_max":0,"o":"m 38 168 b 38 108 38 149 38 131 b 82 6 42 69 44 21 b 132 -1 93 -1 113 -1 b 233 17 165 -6 203 -1 b 267 78 251 32 260 56 b 286 172 278 108 286 142 b 278 225 286 190 286 210 b 214 258 263 247 236 258 b 135 247 188 263 161 254 b 79 232 117 243 97 239 b 49 221 68 232 56 228 b 38 168 38 210 38 186 z m 229 190 b 236 142 244 179 244 160 b 214 85 233 122 225 104 b 203 67 211 78 207 69 b 161 56 192 56 176 56 b 82 122 124 58 82 85 b 128 186 79 149 101 175 b 211 194 154 199 185 199 b 229 190 218 194 225 194 z m 301 518 b 251 613 297 556 289 601 b 146 631 218 628 181 635 b 53 578 108 628 71 608 b 33 432 22 538 26 485 b 44 390 33 419 38 406 b 79 368 49 379 64 368 b 203 379 119 371 161 375 b 240 386 214 379 229 382 b 301 518 289 406 301 465 z m 196 443 b 169 435 188 439 176 435 b 128 432 154 435 139 435 b 82 443 113 432 93 432 b 75 469 79 450 75 461 b 172 575 71 522 117 578 b 203 567 185 575 196 575 b 211 469 233 544 222 503 b 196 443 207 458 203 450 z "},"=":{"ha":632,"x_min":0,"x_max":0,"o":"m 518 522 b 576 546 538 514 565 526 b 600 613 593 565 596 589 b 593 729 608 651 613 694 b 503 792 576 765 538 785 b 385 792 464 800 424 796 b 122 768 299 785 213 776 b 64 703 92 768 72 733 b 53 569 53 660 49 617 b 57 475 53 538 60 507 b 40 401 53 451 49 428 b 36 272 29 358 25 311 b 139 201 53 229 96 193 b 413 244 232 213 322 229 b 526 296 456 253 499 260 b 546 389 546 322 546 358 b 503 494 546 432 538 479 b 397 514 467 510 421 488 b 518 522 432 533 479 533 z m 100 361 b 119 421 100 382 103 408 b 158 436 126 432 143 432 b 417 432 240 451 331 447 b 451 408 432 428 447 425 b 440 326 456 378 464 346 b 389 303 428 311 408 307 b 193 268 322 292 260 279 b 135 272 174 264 154 264 b 100 361 103 288 100 326 z m 553 667 b 486 608 557 636 518 617 b 150 593 378 581 260 604 b 111 636 126 589 111 613 b 139 694 111 656 122 679 b 232 718 163 714 197 718 b 475 714 311 722 393 722 b 553 667 507 710 546 703 z "},"ä":{"ha":1157,"x_min":0,"x_max":0,"o":""},"Ä":{"ha":838,"x_min":0,"x_max":0,"o":"m 815 83 b 629 675 750 282 689 479 b 547 822 610 728 589 788 b 514 836 535 829 525 832 b 576 867 539 843 560 853 b 631 989 613 897 635 942 b 621 1058 631 1013 629 1033 b 613 1075 621 1065 617 1071 b 593 1086 607 1082 600 1086 b 422 1019 529 1099 460 1071 b 396 1028 415 1010 403 1019 b 304 1053 371 1050 338 1061 b 217 1013 272 1050 242 1033 b 174 867 174 976 147 914 b 275 822 193 832 235 822 b 139 686 217 790 169 747 b 89 518 111 633 99 576 b 40 32 53 357 19 193 b 47 10 40 22 43 15 b 74 4 53 1 65 4 b 249 36 131 15 189 26 b 340 69 282 43 317 49 b 390 213 381 106 386 163 b 497 19 419 131 422 63 b 778 26 588 -32 675 10 b 819 53 792 29 813 36 b 815 83 822 60 819 72 z m 465 965 b 508 1007 478 983 489 996 b 564 1000 525 1017 550 1013 b 553 942 576 983 569 954 b 490 925 535 929 511 925 b 456 951 474 929 453 935 b 465 965 456 954 460 961 z m 263 976 b 289 988 269 983 279 988 b 364 968 317 996 354 993 b 344 914 374 949 361 925 b 269 908 324 897 292 894 b 263 976 249 921 242 954 z m 731 125 b 704 106 724 114 714 108 b 489 188 625 69 525 108 b 460 269 478 213 471 240 b 399 326 447 296 426 322 b 321 282 368 333 338 308 b 299 189 307 254 304 224 b 246 158 296 168 269 163 b 118 151 204 154 164 151 b 94 154 111 151 101 151 b 85 204 78 165 82 188 b 232 686 122 368 174 529 b 338 769 249 728 292 761 b 478 769 386 781 429 774 b 525 753 494 768 511 768 b 550 715 539 744 543 728 b 728 172 613 535 671 354 b 731 125 733 154 738 138 z m 436 565 b 429 579 436 572 432 576 b 396 561 419 589 399 579 b 396 518 392 549 396 531 b 378 472 392 501 381 488 b 390 429 374 456 374 439 b 432 429 399 419 419 422 b 465 453 447 432 460 439 b 460 483 468 460 465 472 b 436 565 453 511 447 538 z "},"Ö":{"ha":911,"x_min":0,"x_max":0,"o":"m 547 586 b 490 643 535 610 517 633 b 382 633 457 660 417 646 b 315 592 358 622 332 613 b 301 444 278 556 292 494 b 335 379 308 421 315 397 b 429 369 358 360 399 360 b 585 481 490 390 547 426 b 592 504 588 488 592 494 b 582 535 594 515 588 525 b 547 586 571 551 558 568 z m 464 464 b 406 461 446 454 426 454 b 389 471 403 464 396 464 b 396 504 382 481 386 494 b 429 518 406 511 417 515 b 474 511 443 521 464 525 b 464 464 488 497 481 474 z m 757 728 b 686 804 733 751 700 775 b 646 846 676 822 663 835 b 703 976 682 879 706 929 b 689 1054 703 1004 696 1031 b 679 1078 689 1064 686 1071 b 656 1088 676 1085 665 1088 b 460 1014 585 1106 504 1075 b 429 1024 453 1004 440 1014 b 325 1054 403 1051 363 1061 b 224 1004 285 1047 251 1031 b 174 835 174 964 139 893 b 233 792 186 815 207 799 b 35 379 103 700 18 542 b 443 1 56 178 240 6 b 753 138 561 -1 676 49 b 835 275 790 178 818 225 b 757 728 894 426 878 615 z m 507 950 b 558 997 521 969 538 988 b 622 990 578 1011 608 1007 b 608 922 639 969 629 940 b 540 906 592 906 564 903 b 500 936 521 906 497 917 b 507 950 500 940 504 946 z m 275 960 b 308 976 281 969 294 974 b 396 953 339 983 382 983 b 369 889 403 929 389 906 b 285 882 346 872 311 865 b 275 960 257 899 251 940 z m 794 535 b 646 204 776 414 736 289 b 304 140 558 117 417 79 b 224 201 275 157 251 178 b 96 471 150 272 82 369 b 136 575 103 508 115 542 b 365 794 186 669 264 751 b 474 801 403 801 436 808 b 474 801 474 801 474 801 b 682 717 540 771 618 754 b 794 535 747 681 800 610 z "},"Å":{"ha":797,"x_min":0,"x_max":0,"o":"m 779 81 b 597 646 718 271 658 460 b 521 786 579 699 564 753 b 479 807 508 796 493 804 b 528 881 506 826 525 853 b 531 933 531 899 531 917 b 508 1006 528 960 525 986 b 465 1032 499 1018 482 1025 b 329 1049 424 1049 375 1054 b 217 969 283 1039 240 1013 b 225 819 194 924 201 865 b 240 789 228 807 231 796 b 253 781 243 786 247 783 b 129 656 201 750 158 707 b 83 496 107 607 93 551 b 38 31 51 342 18 186 b 44 8 38 21 38 15 b 69 6 51 3 61 6 b 238 35 125 15 182 25 b 325 67 271 42 301 49 b 371 204 361 100 368 156 b 475 18 397 125 404 61 b 740 25 561 -31 646 8 b 779 51 756 28 776 35 b 779 81 783 58 783 71 z m 351 993 b 436 976 381 990 411 990 b 475 904 463 963 482 933 b 457 875 472 894 463 881 b 351 839 429 844 388 832 b 283 917 317 844 283 878 b 351 993 279 954 313 993 z m 694 119 b 672 100 692 110 682 104 b 465 179 597 67 503 104 b 439 257 457 204 450 231 b 381 313 426 283 407 310 b 306 271 351 319 322 296 b 283 182 293 244 286 214 b 235 153 283 163 253 156 b 113 146 194 149 153 146 b 88 149 103 146 97 146 b 79 194 74 158 76 179 b 219 656 115 351 161 506 b 322 738 238 699 279 728 b 457 738 365 747 411 740 b 503 722 472 735 488 735 b 525 686 511 711 518 699 b 694 165 585 513 643 339 b 694 119 697 149 704 133 z m 417 542 b 411 554 414 549 414 551 b 378 539 400 564 381 554 b 375 496 375 525 378 508 b 361 454 375 479 365 467 b 368 411 358 436 358 421 b 414 411 381 401 397 404 b 443 433 424 414 436 421 b 439 463 447 439 443 454 b 417 542 433 490 424 515 z "},"$":{"ha":1051,"x_min":0,"x_max":0,"o":"m 313 619 b 158 654 254 643 207 654 b 31 572 99 654 51 619 b 124 406 6 501 65 431 b 324 369 183 385 254 385 b 607 240 431 349 526 313 b 833 99 679 193 751 124 b 950 88 868 88 904 88 b 1022 113 975 99 997 99 b 1022 206 1044 133 1044 169 b 950 265 1010 229 986 240 b 833 313 914 276 879 300 b 465 442 715 358 597 394 b 431 465 454 442 444 454 b 431 526 431 476 431 501 b 313 619 431 572 360 608 z m 950 133 b 692 240 854 124 751 169 b 772 229 715 229 751 229 b 526 358 692 276 607 313 b 383 406 476 385 431 394 b 242 419 338 419 288 419 b 99 465 194 419 147 431 b 88 593 65 490 51 547 b 231 619 111 629 183 629 b 349 572 276 608 313 593 b 394 526 360 558 383 547 b 394 465 394 501 394 476 b 454 419 408 442 431 431 b 726 324 547 385 632 349 b 726 289 715 313 715 300 b 961 206 808 289 890 253 b 986 147 986 193 1010 169 b 950 133 986 133 961 133 z m 147 465 b 183 454 147 465 171 454 b 276 442 207 442 242 442 b 313 454 288 442 303 454 b 313 476 313 465 313 465 b 303 526 324 501 324 526 b 171 583 254 536 218 583 b 124 536 147 583 124 558 b 147 465 111 513 124 476 z m 171 526 b 194 536 171 536 183 536 b 218 526 194 536 207 536 b 288 501 242 526 267 513 b 276 490 288 490 276 490 b 207 490 254 490 231 490 b 171 501 194 490 183 490 b 171 526 171 501 158 513 z "},"%":{"ha":1032,"x_min":0,"x_max":0,"o":"m 744 381 b 738 389 744 389 738 389 b 711 381 729 399 711 389 b 729 363 711 371 719 363 b 744 381 738 371 744 371 z m 82 275 b 168 182 117 242 140 208 b 192 147 176 165 183 156 b 254 147 210 147 236 147 b 383 122 297 147 339 128 b 643 138 468 104 564 114 b 885 260 729 165 806 208 b 981 338 918 285 953 313 b 1004 457 996 371 1014 414 b 867 569 986 518 928 551 b 468 656 738 622 600 665 b 90 508 331 656 183 614 b 31 371 54 475 21 422 b 82 275 39 338 64 303 z m 963 485 b 971 407 981 457 981 432 b 918 347 953 381 935 363 b 572 182 833 251 701 200 b 183 233 435 174 306 190 b 140 267 168 242 150 251 b 82 356 117 293 99 329 b 54 407 64 371 54 389 b 90 475 54 432 72 457 b 513 640 201 588 357 647 b 600 632 549 640 572 632 b 900 528 701 604 806 569 b 963 485 928 518 953 503 z m 411 347 l 411 347 b 401 338 401 347 401 347 b 411 329 392 338 401 329 b 419 329 411 329 419 329 b 435 338 425 329 435 329 b 435 356 444 347 444 356 b 419 356 425 363 425 356 b 411 347 419 356 411 347 z m 885 407 b 892 440 885 414 892 422 b 867 485 892 457 876 467 b 711 551 825 518 763 546 b 539 551 651 561 600 551 b 264 485 444 546 349 528 b 201 432 236 475 210 457 b 236 329 192 399 210 356 b 435 267 288 285 367 267 b 781 338 557 267 668 293 b 885 407 815 356 858 371 z m 839 457 b 849 432 849 457 858 440 b 825 399 849 414 839 407 b 600 313 763 347 686 313 b 606 338 600 319 606 329 b 572 356 615 356 590 356 b 521 338 557 356 539 347 b 513 329 521 338 513 338 b 513 313 504 319 504 313 b 513 303 521 313 521 303 b 504 303 513 293 504 293 b 349 319 453 303 401 313 b 288 338 331 319 306 329 b 254 371 272 338 264 356 b 272 432 246 389 254 414 b 339 467 297 450 315 457 b 590 518 425 485 504 508 b 839 457 678 518 771 508 z m 590 338 b 539 329 572 319 557 319 b 590 338 557 338 572 338 z m 539 303 l 539 303 b 549 293 549 303 549 303 b 539 293 549 293 539 293 b 539 303 539 303 539 303 z m 633 399 b 643 389 633 399 633 389 b 643 389 643 389 643 389 b 686 407 660 389 668 399 b 696 414 686 407 696 414 b 678 440 696 422 686 432 b 606 422 660 450 624 440 b 606 414 606 422 606 414 b 633 399 606 407 633 407 z m 643 414 l 643 414 b 643 422 643 414 633 422 b 668 422 651 432 660 432 b 643 414 660 422 651 414 z m 435 414 b 444 422 444 414 444 414 b 425 432 444 432 435 432 b 383 432 411 432 392 432 b 339 414 367 432 349 422 b 349 371 331 407 331 381 b 367 371 349 371 357 371 b 435 414 392 371 419 389 z m 367 399 b 357 399 367 399 367 399 b 374 414 357 407 367 414 b 401 414 383 414 392 414 b 411 414 401 414 411 414 b 401 407 411 414 411 407 b 367 399 392 399 383 389 z "},"&":{"ha":988,"x_min":0,"x_max":0,"o":"m 533 99 b 551 99 551 99 551 99 b 604 99 571 82 588 82 b 588 153 604 117 604 136 b 533 117 571 153 533 136 b 533 99 533 117 533 117 z m 551 506 b 571 540 571 506 571 524 b 500 540 533 540 517 540 b 500 489 481 540 481 506 b 551 506 517 469 533 489 z m 304 435 b 197 382 251 453 197 418 b 268 364 217 364 235 364 b 322 418 288 382 304 399 b 304 435 322 418 322 435 b 304 435 304 435 304 435 z m 339 469 b 375 469 358 469 375 453 b 410 489 393 469 410 469 b 393 506 410 489 393 506 b 375 540 393 506 375 524 b 358 540 375 540 358 540 b 339 540 358 540 339 540 b 288 506 322 540 304 524 b 304 469 288 506 288 469 b 339 469 304 453 322 469 z m 304 206 b 481 240 358 188 429 224 b 551 276 500 240 533 257 b 729 435 604 347 711 364 b 675 560 729 489 711 524 b 551 611 642 593 604 611 b 393 647 500 631 446 647 b 235 576 339 647 268 631 b 181 540 217 560 197 540 b 110 489 146 540 128 524 b 57 364 76 453 57 418 b 197 224 39 294 128 224 b 251 224 217 224 235 224 b 304 206 268 224 288 206 z m 128 399 b 146 453 128 418 128 435 b 181 489 146 469 164 489 b 197 489 181 489 197 489 b 268 540 235 489 251 524 b 429 593 304 593 375 593 b 551 576 481 576 517 576 b 622 560 571 576 604 576 b 622 489 642 540 642 506 b 481 399 588 453 533 418 b 446 364 464 399 446 382 b 393 347 429 347 410 328 b 322 347 375 364 339 347 b 164 347 268 347 217 328 b 110 382 146 347 110 364 b 128 399 110 399 128 399 z m 429 276 b 533 382 446 328 500 364 b 604 418 571 399 588 418 b 675 435 622 435 642 453 b 551 364 658 399 604 382 b 500 311 533 347 517 328 b 429 276 481 294 464 276 z m 375 257 b 288 276 339 257 322 257 b 288 276 288 276 288 276 b 288 294 288 294 288 294 b 358 294 322 294 339 294 b 375 257 375 294 393 276 b 375 257 375 257 375 257 z m 251 276 b 197 257 235 276 217 257 b 164 294 181 276 164 276 b 251 294 197 294 235 294 b 251 276 268 276 251 276 z m 110 99 b 164 136 128 99 146 117 b 128 169 164 153 146 169 b 93 188 110 169 110 188 b 39 169 76 206 39 188 b 39 117 22 153 22 136 b 110 99 76 99 93 99 z m 853 593 b 833 560 853 576 833 576 b 869 489 833 540 853 506 b 958 524 904 489 940 489 b 975 593 975 540 975 560 b 888 611 940 611 924 631 b 853 593 869 611 869 611 z m 924 560 l 940 560 b 924 540 940 560 924 540 b 888 540 904 540 888 540 b 924 560 888 576 924 576 z m 800 257 b 924 257 833 257 869 257 b 940 257 924 257 924 257 b 940 328 958 276 940 294 b 924 364 940 328 940 347 b 888 382 924 364 904 382 b 800 347 853 364 817 364 b 729 276 763 328 746 294 b 800 257 746 257 782 257 z m 869 311 l 853 311 b 853 311 853 294 833 311 b 869 328 853 328 853 328 b 888 328 869 328 869 328 b 888 328 888 328 888 328 b 888 311 904 328 904 311 b 869 311 888 311 869 311 z "},"#":{"ha":831,"x_min":0,"x_max":0,"o":"m 356 778 b 129 689 265 778 190 749 b 39 447 71 628 54 524 b 25 329 39 404 39 372 b 25 239 25 300 25 268 b 100 149 39 210 71 178 b 324 74 161 103 251 74 b 521 210 399 88 489 135 b 611 253 535 239 579 253 b 790 372 669 268 744 314 b 744 583 819 447 806 538 b 654 599 715 599 683 599 b 593 660 625 613 611 628 b 504 778 579 718 550 749 b 356 778 460 793 399 793 z m 115 193 b 71 268 100 210 86 239 b 71 343 71 282 71 314 b 86 447 71 372 86 418 b 175 674 100 538 115 628 b 324 732 219 718 281 732 b 504 718 385 749 446 749 b 550 569 550 689 579 613 b 579 553 535 569 564 553 b 683 553 611 553 654 569 b 758 463 729 538 758 508 b 758 404 774 447 758 418 b 521 314 715 314 611 282 b 475 329 504 314 489 329 b 431 314 460 329 446 329 b 460 282 431 300 446 282 b 489 239 475 282 489 268 b 460 178 489 224 475 193 b 115 193 369 103 219 119 z m 521 569 b 521 628 521 583 521 613 b 446 689 504 660 475 689 b 340 689 399 703 369 689 b 161 583 265 674 204 642 b 144 524 144 569 144 553 b 190 447 144 494 175 463 b 281 433 219 433 251 433 b 414 447 324 433 369 433 b 521 569 460 479 504 524 z m 414 613 b 204 524 324 613 251 583 b 190 524 204 524 190 524 b 190 553 190 538 190 538 b 356 642 219 613 281 642 b 475 613 399 660 446 660 b 475 569 489 599 489 583 b 414 613 475 599 431 613 z m 625 508 b 550 494 593 508 564 508 b 521 479 535 494 521 494 b 535 447 504 463 521 447 b 640 447 564 447 611 447 b 654 447 654 447 654 447 b 654 433 669 433 654 433 b 535 433 611 418 564 404 b 504 418 535 447 504 433 b 535 372 504 389 521 389 b 611 372 564 372 579 372 b 683 418 640 389 669 404 b 669 508 715 447 700 494 b 625 508 654 508 640 508 z "},"+":{"ha":942,"x_min":0,"x_max":0,"o":"m 590 143 b 642 156 604 143 617 156 b 642 194 654 156 654 182 b 604 194 629 194 617 194 b 565 182 590 194 578 194 b 565 143 551 169 551 156 b 590 143 578 143 578 143 z m 732 246 b 899 285 797 232 847 246 b 913 310 913 285 913 297 b 899 324 925 324 913 324 b 744 324 847 310 797 310 b 693 336 732 324 706 324 b 654 375 681 349 654 363 b 719 451 654 413 693 439 b 822 451 758 465 797 478 b 874 426 847 439 861 426 b 899 451 886 413 913 439 b 744 504 874 490 810 517 b 617 401 693 490 642 451 b 551 336 604 375 578 349 b 461 310 526 310 488 324 b 411 246 436 310 397 285 b 488 221 411 221 450 221 b 565 258 513 232 539 258 b 732 246 617 285 681 246 z m 100 349 b 114 363 114 349 114 349 b 114 388 126 363 126 388 b 76 401 100 401 89 401 b 38 388 63 401 50 388 b 24 375 38 388 24 375 b 24 349 11 363 24 349 b 63 336 38 336 50 336 b 100 349 76 336 89 349 z m 578 465 b 513 517 565 490 539 517 b 436 517 488 517 461 517 b 411 504 424 517 411 517 b 358 451 385 490 372 478 b 397 401 358 426 372 401 b 474 401 424 401 450 401 b 539 413 500 401 526 401 b 578 465 565 426 578 451 z m 307 194 b 281 221 307 208 294 221 b 165 208 243 232 204 221 b 153 194 165 194 153 194 b 153 169 153 182 153 182 b 204 143 165 156 192 143 b 243 143 217 143 231 143 b 281 156 256 156 269 156 b 307 194 294 169 307 182 z "},"*":{"ha":926,"x_min":0,"x_max":0,"o":"m 215 106 b 611 106 339 106 486 106 b 733 131 658 106 708 106 b 783 228 783 156 807 203 b 733 303 783 253 758 278 b 758 426 708 353 733 401 b 857 501 783 451 832 476 b 907 599 907 526 907 549 b 857 674 882 624 882 649 b 708 796 807 721 758 746 b 658 821 708 796 683 821 b 536 771 611 821 561 796 b 414 649 486 746 461 699 b 289 649 389 624 339 624 b 165 699 265 674 215 721 b 93 599 115 699 115 649 b 43 376 93 526 68 451 b 93 131 43 303 18 181 b 215 106 115 106 165 106 z m 364 549 b 461 624 414 549 439 599 b 561 721 486 674 511 699 b 658 771 586 746 611 771 b 708 746 683 771 683 746 b 783 649 733 699 758 674 b 758 526 807 599 807 549 b 611 376 708 476 658 426 b 586 328 586 353 586 328 b 611 278 586 303 611 303 b 586 253 611 278 586 278 b 140 228 439 203 289 181 b 93 253 115 228 115 228 b 93 328 68 278 93 303 b 140 574 115 401 115 476 b 190 649 140 599 165 649 b 364 549 265 674 289 549 z m 658 181 b 611 181 633 181 633 181 b 611 203 611 181 611 181 b 658 203 611 203 633 203 b 658 181 658 203 658 181 l 658 181 z "},"'":{"ha":511,"x_min":0,"x_max":0,"o":"m 38 324 b 54 193 18 285 38 229 b 204 118 74 154 129 99 b 318 229 260 118 299 174 b 318 399 335 285 335 340 b 299 510 318 435 299 474 b 374 679 299 567 335 622 b 486 828 411 736 449 792 b 486 886 486 847 504 867 b 468 886 486 886 486 886 b 54 847 335 903 204 886 b 18 828 38 847 18 847 b 38 811 18 811 38 811 b 129 679 54 754 93 717 b 149 492 168 622 168 549 b 38 324 113 435 74 379 z "},"(":{"ha":492,"x_min":0,"x_max":0,"o":"m 86 336 b 40 174 40 290 17 219 b 156 104 63 126 110 126 b 249 104 179 104 203 81 b 342 219 296 104 342 174 b 319 406 342 290 319 360 b 365 732 296 522 319 639 b 482 849 389 778 435 825 b 482 871 482 849 482 871 b 435 894 482 894 458 894 b 110 918 319 894 226 894 b 86 894 110 918 86 918 b 86 849 63 894 63 871 b 110 825 86 849 110 825 b 156 685 156 801 156 732 b 86 336 156 569 156 429 z "},")":{"ha":354,"x_min":0,"x_max":0,"o":"m 226 69 b 335 204 281 96 308 150 b 281 476 335 286 308 367 b 308 829 254 585 254 719 b 254 883 308 856 281 883 b 200 856 226 883 200 883 b 118 829 172 829 146 829 b 10 775 92 801 10 801 b 38 693 10 747 10 719 b 118 286 118 585 146 422 b 92 178 92 232 92 204 b 118 69 64 150 92 96 b 226 69 146 42 200 69 z "},"-":{"ha":285,"x_min":0,"x_max":0,"o":"m 190 875 b 104 847 163 875 132 875 b 47 847 75 847 47 847 b 18 788 18 817 18 817 b 47 731 18 760 47 731 b 75 388 104 617 104 501 b 47 243 47 331 47 301 b 104 158 18 215 47 158 b 190 243 163 129 190 186 b 190 388 219 301 190 358 b 247 760 163 529 190 646 b 247 847 247 788 276 847 b 190 875 219 875 190 875 z "},"A":{"ha":835,"x_min":0,"x_max":0,"o":"m 814 85 b 624 678 750 285 689 481 b 546 821 607 732 589 790 b 464 856 521 842 490 849 b 136 689 335 875 199 804 b 85 521 114 638 99 579 b 39 10 56 361 21 171 b 49 10 42 0 42 14 b 75 10 56 3 64 10 b 249 42 132 21 192 31 b 342 75 282 49 317 56 b 389 218 378 110 385 167 b 497 10 417 138 422 56 b 774 10 586 -40 675 -6 b 814 56 790 14 811 42 b 814 85 818 67 814 78 z m 703 106 b 488 192 624 71 525 113 b 460 274 474 214 471 246 b 399 331 446 300 425 328 b 321 286 364 335 338 314 b 296 194 303 260 300 225 b 246 164 296 174 267 164 b 121 157 204 160 160 157 b 92 160 110 153 103 153 b 85 210 78 171 82 192 b 232 689 124 371 171 532 b 338 771 249 732 293 760 b 478 774 382 785 429 778 b 525 757 493 771 511 771 b 549 717 535 746 542 732 b 725 178 610 539 671 357 b 725 128 729 160 736 143 b 703 106 722 121 711 113 z m 436 569 b 429 582 432 574 432 579 b 396 567 418 593 399 582 b 392 521 392 553 396 535 b 378 478 392 504 382 492 b 385 432 375 460 375 443 b 432 432 399 424 417 426 b 464 453 443 436 457 443 b 460 485 467 464 464 474 b 436 569 453 514 443 542 z "}," ":{"ha":694,"x_min":0,"x_max":0,"o":""}}}
